<svg xmlns="http://www.w3.org/2000/svg" viewBox="0 0 800 2000" width="100%" height="100%" style="background:#f1f5f9;font-family:sans-serif">
  <!-- Header -->
  <rect x="0" y="0" width="800" height="80" fill="#cbd5e1"/>
  <text x="40" y="48" font-size="20" font-weight="bold" fill="#475569">[LOGO] MAXXGO</text>
  <rect x="250" y="25" width="300" height="30" rx="6" fill="#e2e8f0"/>
  <text x="270" y="44" font-size="12" fill="#94a3b8">Buscar productos...</text>
  <circle cx="650" cy="40" r="15" fill="#e2e8f0"/>
  <circle cx="700" cy="40" r="15" fill="#e2e8f0"/>
  <circle cx="750" cy="40" r="15" fill="#e2e8f0"/>

  <!-- Top Banner / Oferta -->
  <rect x="0" y="80" width="800" height="40" fill="#475569"/>
  <text x="400" y="105" font-size="12" font-weight="bold" fill="#ffffff" text-anchor="middle">🔥 ENVÍO GRATIS POR COMPRAS SOBRE $50.000 EN SANTIAGO</text>

  <!-- Hero Section -->
  <rect x="40" y="140" width="720" height="320" rx="16" fill="#e2e8f0"/>
  <text x="80" y="270" font-size="36" font-weight="bold" fill="#334155">Tecnología de Vanguardia</text>
  <text x="80" y="315" font-size="16" fill="#64748b">Equipa tu setup con los mejores gadgets y accesorios.</text>
  <rect x="80" y="355" width="160" height="45" rx="8" fill="#334155"/>
  <text x="120" y="382" font-size="13" font-weight="bold" fill="#ffffff">Ver Catálogo</text>

  <!-- Brands Section -->
  <rect x="40" y="490" width="720" height="60" rx="10" fill="#e2e8f0"/>
  <text x="120" y="525" font-size="14" font-weight="bold" fill="#94a3b8">BRAND 1</text>
  <text x="240" y="525" font-size="14" font-weight="bold" fill="#94a3b8">BRAND 2</text>
  <text x="360" y="525" font-size="14" font-weight="bold" fill="#94a3b8">BRAND 3</text>
  <text x="480" y="525" font-size="14" font-weight="bold" fill="#94a3b8">BRAND 4</text>
  <text x="600" y="525" font-size="14" font-weight="bold" fill="#94a3b8">BRAND 5</text>

  <!-- Grid of Categories (4 cols) -->
  <text x="40" y="600" font-size="22" font-weight="bold" fill="#334155">Explora Categorías</text>
  <rect x="40" y="630" width="160" height="120" rx="12" fill="#e2e8f0"/>
  <text x="80" y="700" font-size="14" font-weight="bold" fill="#64748b">Audio</text>
  <rect x="220" y="630" width="160" height="120" rx="12" fill="#e2e8f0"/>
  <text x="260" y="700" font-size="14" font-weight="bold" fill="#64748b">Pantallas</text>
  <rect x="400" y="630" width="160" height="120" rx="12" fill="#e2e8f0"/>
  <text x="430" y="700" font-size="14" font-weight="bold" fill="#64748b">Componentes</text>
  <rect x="580" y="630" width="160" height="120" rx="12" fill="#e2e8f0"/>
  <text x="620" y="700" font-size="14" font-weight="bold" fill="#64748b">Otros</text>

  <!-- Dynamic Section: Promociones -->
  <rect x="40" y="780" width="345" height="180" rx="16" fill="#e2e8f0"/>
  <text x="70" y="850" font-size="20" font-weight="bold" fill="#334155">Zona Gamer</text>
  <text x="70" y="880" font-size="13" fill="#64748b">Hasta 40% OFF en periféricos</text>
  <rect x="130" y="795" width="230" height="150" rx="10" fill="#cbd5e1"/>

  <rect x="415" y="780" width="345" height="180" rx="16" fill="#e2e8f0"/>
  <text x="445" y="850" font-size="20" font-weight="bold" fill="#334155">Smart Home</text>
  <text x="445" y="880" font-size="13" fill="#64748b">Automatiza tus espacios</text>
  <rect x="505" y="795" width="230" height="150" rx="10" fill="#cbd5e1"/>

  <!-- Grid of Products (2 rows, 4 cols) -->
  <text x="40" y="1010" font-size="22" font-weight="bold" fill="#334155">Más Vendidos</text>

  <!-- Row 1 -->
  <rect x="40" y="1040" width="160" height="260" rx="12" fill="#e2e8f0"/>
  <rect x="55" y="1055" width="130" height="120" rx="8" fill="#cbd5e1"/>
  <text x="55" y="1200" font-size="12" font-weight="bold" fill="#475569">Mouse Ergonómico</text>
  <text x="55" y="1225" font-size="14" font-weight="bold" fill="#334155">$34.990</text>
  <rect x="55" y="1245" width="130" height="30" rx="6" fill="#475569"/>

  <rect x="220" y="1040" width="160" height="260" rx="12" fill="#e2e8f0"/>
  <rect x="235" y="1055" width="130" height="120" rx="8" fill="#cbd5e1"/>
  <text x="235" y="1200" font-size="12" font-weight="bold" fill="#475569">Teclado Office</text>
  <text x="235" y="1225" font-size="14" font-weight="bold" fill="#334155">$29.990</text>
  <rect x="235" y="1245" width="130" height="30" rx="6" fill="#475569"/>

  <rect x="400" y="1040" width="160" height="260" rx="12" fill="#e2e8f0"/>
  <rect x="415" y="1055" width="130" height="120" rx="8" fill="#cbd5e1"/>
  <text x="415" y="1200" font-size="12" font-weight="bold" fill="#475569">Monitor 24" IPS</text>
  <text x="415" y="1225" font-size="14" font-weight="bold" fill="#334155">$149.990</text>
  <rect x="415" y="1245" width="130" height="30" rx="6" fill="#475569"/>

  <rect x="580" y="1040" width="160" height="260" rx="12" fill="#e2e8f0"/>
  <rect x="595" y="1055" width="130" height="120" rx="8" fill="#cbd5e1"/>
  <text x="595" y="1200" font-size="12" font-weight="bold" fill="#475569">Silla Gamer</text>
  <text x="595" y="1225" font-size="14" font-weight="bold" fill="#334155">$199.990</text>
  <rect x="595" y="1245" width="130" height="30" rx="6" fill="#475569"/>

  <!-- Row 2 -->
  <rect x="40" y="1330" width="160" height="260" rx="12" fill="#e2e8f0"/>
  <rect x="55" y="1345" width="130" height="120" rx="8" fill="#cbd5e1"/>
  <text x="55" y="1490" font-size="12" font-weight="bold" fill="#475569">Hub USB-C 8 en 1</text>
  <text x="55" y="1515" font-size="14" font-weight="bold" fill="#334155">$24.990</text>
  <rect x="55" y="1535" width="130" height="30" rx="6" fill="#475569"/>

  <rect x="220" y="1330" width="160" height="260" rx="12" fill="#e2e8f0"/>
  <rect x="235" y="1345" width="130" height="120" rx="8" fill="#cbd5e1"/>
  <text x="235" y="1490" font-size="12" font-weight="bold" fill="#475569">Foco Inteligente</text>
  <text x="235" y="1515" font-size="14" font-weight="bold" fill="#334155">$9.990</text>
  <rect x="235" y="1535" width="130" height="30" rx="6" fill="#475569"/>

  <rect x="400" y="1330" width="160" height="260" rx="12" fill="#e2e8f0"/>
  <rect x="415" y="1345" width="130" height="120" rx="8" fill="#cbd5e1"/>
  <text x="415" y="1490" font-size="12" font-weight="bold" fill="#475569">Cámara Web 1080p</text>
  <text x="415" y="1515" font-size="14" font-weight="bold" fill="#334155">$39.990</text>
  <rect x="415" y="1535" width="130" height="30" rx="6" fill="#475569"/>

  <rect x="580" y="1330" width="160" height="260" rx="12" fill="#e2e8f0"/>
  <rect x="595" y="1345" width="130" height="120" rx="8" fill="#cbd5e1"/>
  <text x="595" y="1490" font-size="12" font-weight="bold" fill="#475569">Disco Externo 1TB</text>
  <text x="595" y="1515" font-size="14" font-weight="bold" fill="#334155">$54.990</text>
  <rect x="595" y="1535" width="130" height="30" rx="6" fill="#475569"/>

  <!-- Testimonials -->
  <rect x="40" y="1620" width="720" height="180" rx="16" fill="#e2e8f0"/>
  <text x="80" y="1670" font-size="20" font-weight="bold" fill="#334155">Qué dicen nuestros clientes</text>
  <text x="80" y="1710" font-size="14" fill="#64748b">"Excelente servicio postventa. El despacho fue en el mismo día."</text>
  <text x="80" y="1740" font-size="12" font-weight="bold" fill="#475569">- Juan P., Santiago</text>

  <!-- Footer -->
  <rect x="0" y="1830" width="800" height="170" fill="#334155"/>
  <text x="40" y="1880" font-size="16" font-weight="bold" fill="#ffffff">MAXXGO</text>
  <text x="40" y="1910" font-size="12" fill="#cbd5e1">Tienda oficial de tecnología premium.</text>
  <text x="40" y="1950" font-size="11" fill="#94a3b8">© 2026 Maxxgo. Todos los derechos reservados.</text>
</svg>
